<?xml version="1.0" encoding="UTF-8" standalone="no"?>
<svg
   xmlns:dc="http://purl.org/dc/elements/1.1/"
   xmlns:cc="http://creativecommons.org/ns#"
   xmlns:rdf="http://www.w3.org/1999/02/22-rdf-syntax-ns#"
   xmlns:svg="http://www.w3.org/2000/svg"
   xmlns="http://www.w3.org/2000/svg"
   xmlns:sodipodi="http://sodipodi.sourceforge.net/DTD/sodipodi-0.dtd"
   xmlns:inkscape="http://www.inkscape.org/namespaces/inkscape"
   width="32"
   height="50"
   viewBox="0 0 32 50"
   version="1.1"
   id="svg6"
   sodipodi:docname="map-marker-blue.svg"
   inkscape:version="0.92.3 (2405546, 2018-03-11)">
  <metadata
     id="metadata12">
    <rdf:RDF>
      <cc:Work
         rdf:about="">
        <dc:format>image/svg+xml</dc:format>
        <dc:type
           rdf:resource="http://purl.org/dc/dcmitype/StillImage" />
        <dc:title />
      </cc:Work>
    </rdf:RDF>
  </metadata>
  <defs
     id="defs10" />
  <sodipodi:namedview
     pagecolor="#ffffff"
     bordercolor="#666666"
     borderopacity="1"
     objecttolerance="10"
     gridtolerance="10"
     guidetolerance="10"
     inkscape:pageopacity="0"
     inkscape:pageshadow="2"
     inkscape:window-width="924"
     inkscape:window-height="1051"
     id="namedview8"
     showgrid="false"
     inkscape:zoom="4.72"
     inkscape:cx="-17.792373"
     inkscape:cy="25"
     inkscape:window-x="992"
     inkscape:window-y="0"
     inkscape:window-maximized="0"
     inkscape:current-layer="svg6" />
  <path
     fill="#D84335"
     d="M2 14.571c.015-10.488 10.436-17.42 19.83-12.971 8.452 4.002 10.508 13.063 5.409 21.557-4.682 7.799-9.337 15.649-9.972 25.073-.056.828-.249 1.529-1.248 1.539-.992.01-1.207-.664-1.281-1.504-.786-8.935-4.598-16.665-9.55-23.945-1.926-2.832-3.192-6.8-3.188-9.749zM15.826 20.121c3.407.07 5.896-2.291 5.945-5.639.048-3.273-2.315-5.797-5.512-5.89-3.425-.1-5.94 2.227-6.018 5.567-.081 3.471 2.187 5.892 5.585 5.962z"
     id="path2"
     style="fill:#37abc8" />
  <path
     fill="#912D25"
     d="M15.826 20.121c-3.399-.07-5.667-2.491-5.585-5.963.078-3.34 2.594-5.667 6.018-5.567 3.197.093 5.559 2.618 5.512 5.89-.048 3.349-2.537 5.71-5.945 5.64z"
     id="path4"
     style="fill:#164450" />
</svg>
